<?xml version="1.0" encoding="utf-8"?>
<!-- Generator: Adobe Illustrator 15.0.0, SVG Export Plug-In . SVG Version: 6.00 Build 0)  -->
<!DOCTYPE svg PUBLIC "-//W3C//DTD SVG 1.1//EN" "http://www.w3.org/Graphics/SVG/1.1/DTD/svg11.dtd">
<svg version="1.1" id="Capa_1" xmlns="http://www.w3.org/2000/svg" xmlns:xlink="http://www.w3.org/1999/xlink" x="0px" y="0px"
	 width="150px" height="150px" viewBox="75.445 670.14 150 150" enable-background="new 75.445 670.14 150 150"
	 xml:space="preserve">
<g>
	<g>
		<g>
			<path d="M149.093,729.304v12.836h68.459v-12.836H149.093z M213.273,737.862h-59.902v-4.279h59.902V737.862z"/>
			<polygon points="153.371,725.025 157.65,725.025 157.65,721.8 183.322,702.053 208.994,721.8 208.994,725.025 213.273,725.025 
				213.273,719.694 183.322,696.653 153.371,719.694 			"/>
			<path d="M217.552,787.067c0-6.003-2.064-11.889-5.814-16.576l-1.875-2.343c-1.255-1.572-3.132-2.475-5.147-2.475
				c-1.598,0-3.096,0.588-4.279,1.606v-3.746h-12.836v12.836h6.544c-1.477,3.354-2.266,7.002-2.266,10.697
				c0,6.347,4.636,11.618,10.696,12.644v6.61H191.88v-19.254v-2.14h-17.115v21.394h-21.394v-6.61
				c6.061-1.023,10.697-6.294,10.697-12.644c0-6.003-2.064-11.889-5.814-16.576l-1.874-2.343c-1.256-1.572-3.132-2.475-5.147-2.475
				s-3.892,0.902-5.145,2.473l-1.876,2.345c-3.75,4.688-5.814,10.573-5.814,16.576c0,6.347,4.636,11.618,10.697,12.644v6.61h-19.254
				v-21.394h-17.115v21.394H99.887v-6.61c6.061-1.023,10.696-6.294,10.696-12.644c0-5.34-1.643-10.581-4.642-14.976h2.503v-12.836
				H95.609v6.813c-1.164,0.4-2.216,1.087-3.006,2.077l-1.876,2.345c-3.75,4.688-5.814,10.573-5.814,16.576
				c0,6.347,4.636,11.618,10.697,12.644v6.61h-6.418v-6.418h-4.279v10.696h10.697h4.279h49.205h4.278h49.205h4.279h10.697v-10.696
				h-4.279v6.418h-6.418v-6.61C212.916,798.685,217.552,793.414,217.552,787.067z M99.887,763.534h4.278v4.278h-1.606
				c-0.745-0.807-1.656-1.393-2.672-1.743V763.534z M95.609,784.927v10.393c-3.68-0.956-6.418-4.276-6.418-8.253
				c0-5.036,1.733-9.972,4.875-13.901l1.876-2.348c0.443-0.552,1.1-0.866,1.806-0.866c0.706,0,1.363,0.314,1.806,0.868l1.876,2.346
				c3.143,3.93,4.876,8.865,4.876,13.901c0,3.977-2.739,7.297-6.418,8.253v-10.393H95.609z M125.56,806.321h-8.558v-17.115h8.558
				V806.321z M149.093,784.927v10.393c-3.68-0.956-6.418-4.276-6.418-8.253c0-5.036,1.733-9.972,4.876-13.901l1.876-2.348
				c0.443-0.552,1.1-0.866,1.806-0.866s1.363,0.314,1.806,0.868l1.876,2.346c3.143,3.93,4.876,8.865,4.876,13.901
				c0,3.977-2.739,7.297-6.418,8.253v-10.393H149.093z M187.601,806.321h-8.558v-17.115h8.558V806.321z M191.88,772.092v-4.279
				h4.278v4.279H191.88z M202.576,784.927v10.393c-3.679-0.956-6.418-4.276-6.418-8.253c0-5.036,1.733-9.972,4.876-13.901
				l1.876-2.348c0.443-0.552,1.1-0.866,1.806-0.866s1.363,0.314,1.806,0.868l1.876,2.346c3.143,3.93,4.875,8.865,4.875,13.901
				c0,3.977-2.738,7.297-6.418,8.253v-10.393H202.576z"/>
			<rect x="153.371" y="746.419" width="4.279" height="17.115"/>
			<rect x="208.994" y="746.419" width="4.278" height="17.115"/>
			<path d="M200.437,746.419h-12.836v12.837h12.836V746.419z M196.158,754.976h-4.278v-4.278h4.278V754.976z"/>
			<path d="M179.043,746.419h-12.836v12.837h12.836V746.419z M174.764,754.976h-4.278v-4.278h4.278V754.976z"/>
			<path d="M125.56,707.911h-12.836v12.836h12.836V707.911z M121.281,716.469h-4.279v-4.279h4.279V716.469z"/>
			<path d="M142.674,707.911h-12.836v12.836h12.836V707.911z M138.396,716.469h-4.279v-4.279h4.279V716.469z"/>
			<path d="M108.445,707.911H95.609v12.836h12.836V707.911z M104.166,716.469h-4.278v-4.279h4.278V716.469z"/>
			<path d="M125.56,725.025h-12.836v12.837h12.836V725.025z M121.281,733.583h-4.279v-4.278h4.279V733.583z"/>
			<path d="M142.674,725.025h-12.836v12.837h12.836V725.025z M138.396,733.583h-4.279v-4.278h4.279V733.583z"/>
			<path d="M108.445,725.025H95.609v12.837h12.836V725.025z M104.166,733.583h-4.278v-4.278h4.278V733.583z"/>
			<path d="M125.56,742.14h-12.836v12.836h12.836V742.14z M121.281,750.698h-4.279v-4.279h4.279V750.698z"/>
			<path d="M142.674,742.14h-12.836v12.836h12.836V742.14z M138.396,750.698h-4.279v-4.279h4.279V750.698z"/>
			<path d="M95.609,754.976h12.836V742.14H95.609V754.976z M99.887,746.419h4.278v4.279h-4.278V746.419z"/>
			<path d="M112.723,772.092h12.836v-12.836h-12.836V772.092z M117.002,763.534h4.279v4.278h-4.279V763.534z"/>
			<path d="M129.838,772.092h12.836v-12.836h-12.836V772.092z M134.117,763.534h4.279v4.278h-4.279V763.534z"/>
			<path d="M166.207,776.37h12.836v-12.836h-12.836V776.37z M170.486,767.812h4.278v4.279h-4.278V767.812z"/>
			<polygon points="89.191,703.632 149.093,703.632 149.093,714.329 153.371,714.329 153.371,699.353 84.912,699.353 
				84.912,769.952 89.191,769.952 			"/>
			<path d="M95.609,690.796h47.065v4.279h4.279v-8.558h-4.279v-8.558H95.609v8.558H91.33v8.558h4.279V690.796z M99.887,682.239
				h38.508v4.278H99.887V682.239z"/>
		</g>
	</g>
</g>
</svg>
